<svg width="41" height="22" viewBox="0 0 41 22" fill="none" xmlns="http://www.w3.org/2000/svg">
<path d="M23.6095 0.758352C23.3202 0.801346 23.0508 0.913839 22.8321 1.083C22.6134 1.25216 22.4542 1.47117 22.3727 1.71488L16.9022 16.4624L12.6039 7.68147C12.4939 7.44729 12.31 7.24446 12.0732 7.09609C11.8365 6.94772 11.5563 6.85974 11.2646 6.84214C10.9728 6.82454 10.6812 6.87804 10.4229 6.99654C10.1646 7.11504 9.94989 7.29381 9.80327 7.5125L6.48159 12.5219H2.31333C1.89877 12.5219 1.50119 12.6643 1.20805 12.9176C0.914911 13.171 0.750229 13.5146 0.750229 13.8729C0.750229 14.2312 0.914911 14.5748 1.20805 14.8282C1.50119 15.0815 1.89877 15.2238 2.31333 15.2238H7.39359C7.67036 15.2259 7.94282 15.1645 8.1831 15.0457C8.42339 14.927 8.62289 14.7553 8.7612 14.548L10.9754 11.2275L15.6647 20.9084C15.7883 21.1633 15.9994 21.3792 16.2695 21.5272C16.5396 21.6751 16.8557 21.7479 17.1751 21.7357C17.4946 21.7236 17.802 21.627 18.056 21.4591C18.31 21.2912 18.4982 21.0599 18.5954 20.7966L23.8704 6.50012L28.1033 17.532C28.1972 17.7844 28.3749 18.0073 28.6143 18.173C28.8537 18.3387 29.1442 18.4399 29.4497 18.4639C29.7551 18.4879 30.062 18.4338 30.3321 18.3082C30.6022 18.1826 30.8235 17.991 30.9686 17.7575L33.9647 13.2543H38.654C39.0686 13.2543 39.4662 13.1119 39.7593 12.8586C40.0524 12.6052 40.2171 12.2616 40.2171 11.9033C40.2171 11.545 40.0524 11.2014 39.7593 10.948C39.4662 10.6947 39.0686 10.5524 38.654 10.5524H33.0527C32.776 10.5503 32.5035 10.6117 32.2632 10.7304C32.0229 10.8492 31.8234 11.0209 31.6851 11.2281L29.992 13.817L25.3681 1.65899C25.2489 1.3514 25.0056 1.09116 24.6827 0.925792C24.3598 0.760428 23.9789 0.700992 23.6095 0.758352Z" fill="#8B48DF"/>
</svg>
