<svg width="128" height="199" viewBox="0 0 128 199" fill="none" xmlns="http://www.w3.org/2000/svg">
<path d="M72.2901 183.768L68.6145 185.92C84.9129 186.142 97.4096 187.348 97.4096 188.818C97.4096 189.417 91.5263 191.081 83.3309 192.191C76.7367 193.084 68.0925 193.521 64.0296 193.502C45.1774 193.414 29.1456 190.445 29.1456 188.818C29.1456 187.294 42.5752 186.057 59.7453 185.903L56.2096 183.832C29.2792 184.303 14.6976 185.889 14.6979 188.353C14.6979 191.164 39.3784 197.986 64.0296 198.032C84.2247 198.07 104.4 193.561 111.034 190.384C111.034 190.384 113.302 189.046 113.302 188.538C113.302 185.855 102.802 183.962 72.2901 183.768Z" fill="#C9B0E0"/>
<path d="M62.9684 0.979875C46.5275 0.426389 24.6153 10.5339 13.0011 27.2225C1.61065 43.59 0.366634 66.5473 0.366634 66.5473C0.366634 66.5473 -0.833168 92.7967 15.0959 123.204C31.0249 153.612 64.0825 188.176 64.0825 188.176C64.0825 188.176 87.8746 164.106 106.261 134.205C128.704 97.7106 127.646 62.6977 127.646 62.6977C127.646 62.6977 127.6 47.5647 118.868 33.0554C109.348 17.2392 90.0462 1.89152 62.9684 0.979875ZM63.9967 8.51281C95.9895 8.51281 121.924 35.1249 121.924 67.9542C121.924 100.783 95.9898 127.405 63.9967 127.406C32.0039 127.406 6.06977 100.783 6.06977 67.9542C6.06977 35.1249 32.0039 8.51281 63.9967 8.51281Z" fill="#420B75"/>
<path d="M45.3253 37.1782C41.9522 37.2199 38.5369 37.923 35.747 39.064C26.0871 43.0145 21.3447 55.6505 28.4251 72.8003C31.6668 80.6516 37.3153 88.198 44.7444 94.5681C53.5431 102.112 63.4062 107.817 63.4062 107.817C63.4062 107.817 74.4497 102.112 83.2484 94.5681C90.6776 88.198 96.3359 80.6516 99.5773 72.8003C106.658 55.6505 101.906 43.0145 92.2458 39.064C86.6664 36.7823 78.6109 36.235 73.3273 39.279C69.5409 41.4604 66.0431 44.9307 63.8156 47.3393C61.5111 44.717 58.1884 41.3028 54.6751 39.279C52.0334 37.7568 48.6985 37.1368 45.3253 37.1782Z" fill="#E0323F"/>
<path d="M38.2897 73.2823L51.6222 73.3556L53.9728 68.2697L57.3211 79.9269L62.2766 57.5925L67.9155 92.7108L75.4627 63.4634L80.3136 77.2135L89.7102 77.0178" stroke="white" stroke-width="3" stroke-miterlimit="10" stroke-linecap="round" stroke-linejoin="round"/>
</svg>
